<?xml version="1.0" encoding="utf-8"?>
<!-- Generator: Adobe Illustrator 19.2.1, SVG Export Plug-In . SVG Version: 6.00 Build 0)  -->
<svg version="1.1" id="Ebene_1" xmlns="http://www.w3.org/2000/svg" xmlns:xlink="http://www.w3.org/1999/xlink" x="0px" y="0px"
	 viewBox="0 0 250 80" style="enable-background:new 0 0 250 80;" xml:space="preserve">
<style type="text/css">
	.st0{fill:#052638;}
	.st1{fill-rule:evenodd;clip-rule:evenodd;fill:#052638;}
	.st2{fill:#B8BAC0;}
</style>
<g>
	<path class="st0" d="M192.1,75c0,3.3,1.5,5,4.9,5c1.4,0,3.1-0.2,4.1-0.6v-7.9h-2V78c-0.5,0.1-1.3,0.2-1.9,0.2c-2.4,0-3.1-1-3.1-3.2
		v-8c0-2.5,0.9-3.5,3.3-3.5c1.2,0,2.4,0.2,3.3,0.5l0.3-1.8c-1-0.4-2.4-0.6-3.7-0.6c-3.6,0-5.3,1.7-5.3,5.3V75L192.1,75z"/>
	<path class="st1" d="M213.3,66.2c0-2.8-1.2-4.2-4.1-4.2H204v17.7h2.1v-7.3h2.6l3.1,7.3h2.3l-3.3-7.6c1.7-0.6,2.5-1.9,2.5-3.9V66.2
		L213.3,66.2z M211.2,68.2c0,1.7-0.7,2.4-2.3,2.4h-2.8v-6.7h2.9c1.6,0,2.2,0.6,2.2,2.3V68.2L211.2,68.2z"/>
	<path class="st1" d="M225.6,66.8c0-3.1-1.4-5.1-4.9-5.1s-4.9,2-4.9,5.1v8.1c0,3.1,1.4,5.1,4.9,5.1s4.9-2,4.9-5.1V66.8L225.6,66.8z
		 M223.5,75.1c0,2-0.8,3.1-2.8,3.1c-2,0-2.8-1-2.8-3.1v-8.5c0-2,0.8-3.1,2.8-3.1c2,0,2.8,1,2.8,3.1V75.1L223.5,75.1z"/>
	<path class="st0" d="M235.9,62v13.3c0,2-0.9,2.8-2.7,2.8c-1.8,0-2.7-0.8-2.7-2.8V62h-2.1v13.2c0,3.1,1.5,4.8,4.8,4.8
		c3.3,0,4.8-1.8,4.8-4.8V62H235.9L235.9,62z"/>
	<path class="st1" d="M241,79.7h2.1v-7.2h2.6c2.9,0,4.3-1.8,4.3-4.2v-2.1c0-2.7-1.2-4.2-4.1-4.2H241V79.7L241,79.7z M243.1,70.6
		v-6.8h2.6c1.6,0,2.2,0.7,2.2,2.4v2c0,1.7-0.7,2.4-2.3,2.4H243.1L243.1,70.6z"/>
	<path class="st0" d="M46.6,0h4.2c0.6,0,1,0.4,1.2,0.9l12.5,51.9L79.7,1c0.2-0.6,0.6-1,1.2-1H92c0.7,0,1.2,0.5,1.2,1.2
		c0,0.1,0,0.2,0,0.3L70.9,78.8c-0.1,0.5-0.6,0.9-1.2,0.9H59.6c-0.5,0-1-0.4-1.2-0.9l-11.8-48l-11.8,48c-0.2,0.5-0.6,0.9-1.2,0.9
		H23.5c-0.6,0-1-0.4-1.2-0.9L0,1.5c0-0.1,0-0.2,0-0.3C0,0.5,0.5,0,1.2,0h11.1c0.6,0,1,0.4,1.2,1l15.2,51.8L41.3,0.9
		C41.4,0.4,41.9,0,42.4,0H46.6L46.6,0z"/>
	<path class="st0" d="M118.5,0c0.5,0,1,0.3,1.1,0.8l28,77.3c0,0.1,0.1,0.3,0.1,0.4c0,0.7-0.5,1.2-1.2,1.2h-11.2
		c-0.5,0-1-0.3-1.1-0.8l-5.1-15h-25.9l3.9-11.3h18.3l-11-30.8L94.2,78.8c-0.2,0.5-0.6,0.8-1.2,0.8H81.9c-0.7,0-1.2-0.5-1.2-1.2
		c0-0.1,0-0.3,0.1-0.4l28-77.2c0.2-0.5,0.6-0.8,1.1-0.8H118.5L118.5,0z"/>
	<path class="st0" d="M158.5,79.7c-0.7,0-1.2-0.5-1.2-1.2l0-14.5L134.4,1.7c-0.1-0.1-0.1-0.3-0.1-0.4c0-0.7,0.5-1.2,1.2-1.2h11.5
		c0.5,0,1,0.3,1.1,0.8l15.6,44.4l15.6-44.5c0.2-0.5,0.6-0.8,1.1-0.8H192c0.7,0,1.2,0.5,1.2,1.2c0,0.1,0,0.3-0.1,0.4l-22.9,62.3v14.6
		c0,0.7-0.5,1.2-1.2,1.2H158.5L158.5,79.7z"/>
	<path class="st0" d="M213.3,30.1c0,0.5-0.3,1-0.8,1.1l-18.8,7.2c-0.1,0.1-0.3,0.1-0.4,0.1c-0.7,0-1.2-0.5-1.2-1.2
		c0-0.2,0-0.3,0.1-0.5l15.6-36c0.2-0.5,0.6-0.8,1.1-0.8h3.2c0.7,0,1.2,0.5,1.2,1.2V30.1L213.3,30.1z"/>
	<path class="st2" d="M231.6,33.5c0.1,0.1,0.1,0.3,0.1,0.5c0,0.7-0.5,1.2-1.2,1.2c-0.1,0-0.2,0-0.4-0.1l-12.7-3.9
		c-0.5-0.2-0.9-0.6-0.9-1.2V5.5c0-0.7,0.5-1.2,1.2-1.2h1.1c0.5,0,0.9,0.3,1.1,0.8L231.6,33.5L231.6,33.5z"/>
</g>
</svg>
